<svg width="14" height="11" viewBox="0 0 14 11" fill="none" xmlns="http://www.w3.org/2000/svg">
<path d="M2.32509 0.422682C2.07573 0.157271 1.73474 0.00527654 1.37712 0.0001348C1.01951 -0.00500694 0.674572 0.137126 0.41819 0.395265C0.161808 0.653404 0.0149841 1.0064 0.0100172 1.37661C0.00505038 1.74681 0.142348 2.1039 0.391706 2.36931L3.49041 5.50859L0.391706 8.64787C0.267588 8.77531 0.169072 8.92693 0.101842 9.09398C0.0346128 9.26103 0 9.44022 0 9.62119C0 9.80216 0.0346128 9.98134 0.101842 10.1484C0.169072 10.3154 0.267588 10.4671 0.391706 10.5945C0.51481 10.723 0.661272 10.825 0.822642 10.8946C0.984012 10.9642 1.1571 11 1.33191 11C1.50673 11 1.67981 10.9642 1.84118 10.8946C2.00255 10.825 2.14901 10.723 2.27212 10.5945L6.24481 6.4819C6.36893 6.35447 6.46745 6.20285 6.53468 6.03579C6.60191 5.86874 6.63652 5.68956 6.63652 5.50859C6.63652 5.32762 6.60191 5.14844 6.53468 4.98139C6.46745 4.81434 6.36893 4.66272 6.24481 4.53528L2.32509 0.422682ZM13.5811 4.53528L9.60837 0.422682C9.35901 0.164543 9.02081 0.0195216 8.66816 0.0195216C8.31551 0.0195216 7.97731 0.164543 7.72795 0.422682C7.4786 0.680821 7.33851 1.03093 7.33851 1.396C7.33851 1.76106 7.4786 2.11117 7.72795 2.36931L10.7737 5.50859L7.72795 8.64787C7.60384 8.77531 7.50532 8.92693 7.43809 9.09398C7.37086 9.26103 7.33625 9.44022 7.33625 9.62119C7.33625 9.80216 7.37086 9.98134 7.43809 10.1484C7.50532 10.3154 7.60384 10.4671 7.72795 10.5945C7.85106 10.723 7.99752 10.825 8.15889 10.8946C8.32026 10.9642 8.49335 11 8.66816 11C8.84297 11 9.01606 10.9642 9.17743 10.8946C9.3388 10.825 9.48526 10.723 9.60837 10.5945L13.5811 6.4819C13.7087 6.35812 13.8114 6.20939 13.8832 6.04429C13.955 5.8792 13.9945 5.70101 13.9995 5.52002C14.0044 5.33903 13.9746 5.15882 13.9119 4.9898C13.8492 4.82078 13.7547 4.6663 13.634 4.53528H13.5811Z" fill="#FB9C2E"/>
</svg>
